<?xml version="1.0" encoding="iso-8859-1"?>
<!-- Uploaded to: SVG Repo, www.svgrepo.com, Generator: SVG Repo Mixer Tools -->
<!DOCTYPE svg PUBLIC "-//W3C//DTD SVG 1.1//EN" "http://www.w3.org/Graphics/SVG/1.1/DTD/svg11.dtd">
<svg fill="#ffffff" height="800px" width="800px" version="1.1" id="Capa_1" xmlns="http://www.w3.org/2000/svg" xmlns:xlink="http://www.w3.org/1999/xlink" 
	 viewBox="0 0 298.369 298.369" xml:space="preserve">
<g>
	<g>
		<path d="M207.558,127.728c-12.021-17.53-26.837-27.626-40.693-27.749c-0.039,0-0.258-0.002-0.258-0.002
			c-13.889,0.068-28.754,10.172-40.808,27.751c-11.142,16.248-17.794,35.916-17.794,52.612c0,22.521,6.2,39.662,18.428,50.947
			c10.007,9.236,23.866,14.133,40.088,14.18c0.029,0,0.285,0,0.314,0c16.222-0.047,30.081-4.943,40.089-14.18
			c12.227-11.285,18.427-28.426,18.427-50.947C225.351,163.644,218.7,143.976,207.558,127.728z M166.678,230.47
			c-19.941-0.02-43.673-8.745-43.673-50.13c0-28.678,24.469-65.273,43.674-65.363c8.634,0.045,19.549,8.17,28.508,21.234
			c9.354,13.64,15.164,30.55,15.164,44.129C210.351,221.725,186.62,230.449,166.678,230.47z"/>
		<path d="M272.712,169.389c-3.67-23.284-17.365-49.665-31.865-77.595c-9.552-18.4-19.429-37.426-25.797-54.868
			c-10.128-27.738-27.824-40.54-47.59-34.61c-19.695-6.053-54.606-2.071-69.982,34.26C90.5,53.065,78.851,70.214,66.518,88.37
			c-18.489,27.221-37.608,55.367-41.454,83.331c-5.311,38.608,1.848,69.481,21.273,91.763
			c26.467,30.355,66.936,34.888,88.703,34.888c0,0,12.433,0.184,17.785-0.64c4.511,0.421,9.131,0.64,13.852,0.64
			c0.261,0,1.282,0,1.543,0c35.658,0,65.67-12.137,84.506-34.176C272.294,241.283,279.018,209.392,272.712,169.389z M57.644,253.606
			c-16.451-18.868-22.413-45.737-17.721-79.861c3.367-24.483,21.483-51.153,39.003-76.945
			c12.198-17.958,24.813-36.527,32.366-54.378c3.983-9.411,9.403-15.78,15.316-19.997c-2.514,4.248-4.783,9.086-6.76,14.502
			c-6.368,17.442-16.245,36.468-25.797,54.868c-14.5,27.93-28.195,54.311-31.865,77.595c-6.306,40.003,0.418,71.895,19.985,94.787
			c4.449,5.207,9.53,9.852,15.154,13.924C83.286,273.885,68.855,266.464,57.644,253.606z M241.325,254.43
			c-21.508,25.164-55.033,28.922-73.104,28.922c-0.261,0-1.282,0-1.543,0c-18.07,0-51.596-3.758-73.103-28.922
			c-16.588-19.406-22.163-47.232-16.571-82.705c3.291-20.874,17.053-47.383,30.361-73.02c9.771-18.822,19.875-38.284,26.574-56.635
			c4.315-11.821,13.935-30.652,30.241-25.05c3.053,1.049,4.779,0.617,6.539,0c16.272-5.707,25.926,13.23,30.241,25.05
			c6.699,18.351,16.803,37.813,26.574,56.635c13.309,25.637,27.07,52.146,30.361,73.02
			C263.488,207.197,257.913,235.024,241.325,254.43z"/>
		<g>
			<path d="M142.801,177.719c-4.143,0-7.5-3.357-7.5-7.5c0-11.099,11.344-33.183,24.271-37.423c3.938-1.293,8.173,0.854,9.464,4.788
				c1.291,3.936-0.852,8.173-4.788,9.464c-5.472,1.795-13.947,16.93-13.947,23.171C150.301,174.362,146.944,177.719,142.801,177.719
				z"/>
		</g>
	</g>
</g>
</svg>